<mxfile host="app.diagrams.net" modified="2024-04-02T00:34:58.574Z" agent="Mozilla/5.0 (Windows NT 10.0; Win64; x64) AppleWebKit/537.36 (KHTML, like Gecko) Chrome/123.0.0.0 Safari/537.36 Edg/123.0.0.0" etag="CSmKxss-mmbksIG2IouG" version="24.2.1" type="google">
  <diagram name="Página-1" id="S6l5nYUhlcBgiFwGhGMV">
    <mxGraphModel grid="1" page="1" gridSize="10" guides="1" tooltips="1" connect="1" arrows="1" fold="1" pageScale="1" pageWidth="827" pageHeight="1169" math="0" shadow="0">
      <root>
        <mxCell id="0" />
        <mxCell id="1" parent="0" />
        <mxCell id="skaD_aCSD-KKtkOVfrvB-14" value="" style="rounded=0;whiteSpace=wrap;html=1;" vertex="1" parent="1">
          <mxGeometry x="220" y="280" width="410" height="505" as="geometry" />
        </mxCell>
        <mxCell id="skaD_aCSD-KKtkOVfrvB-21" style="rounded=0;orthogonalLoop=1;jettySize=auto;html=1;" edge="1" parent="1" source="skaD_aCSD-KKtkOVfrvB-3" target="skaD_aCSD-KKtkOVfrvB-12">
          <mxGeometry relative="1" as="geometry" />
        </mxCell>
        <mxCell id="skaD_aCSD-KKtkOVfrvB-23" style="rounded=0;orthogonalLoop=1;jettySize=auto;html=1;entryX=0;entryY=0.5;entryDx=0;entryDy=0;" edge="1" parent="1" source="skaD_aCSD-KKtkOVfrvB-3" target="skaD_aCSD-KKtkOVfrvB-19">
          <mxGeometry relative="1" as="geometry" />
        </mxCell>
        <mxCell id="skaD_aCSD-KKtkOVfrvB-35" style="rounded=0;orthogonalLoop=1;jettySize=auto;html=1;entryX=0;entryY=0.5;entryDx=0;entryDy=0;" edge="1" parent="1" source="skaD_aCSD-KKtkOVfrvB-3" target="skaD_aCSD-KKtkOVfrvB-32">
          <mxGeometry relative="1" as="geometry" />
        </mxCell>
        <object label="Actor" Usuario_Lector="" id="skaD_aCSD-KKtkOVfrvB-3">
          <mxCell style="shape=umlActor;verticalLabelPosition=bottom;verticalAlign=top;html=1;outlineConnect=0;" vertex="1" parent="1">
            <mxGeometry x="120" y="460" width="40" height="60" as="geometry" />
          </mxCell>
        </object>
        <mxCell id="skaD_aCSD-KKtkOVfrvB-22" style="rounded=0;orthogonalLoop=1;jettySize=auto;html=1;entryX=1;entryY=0.5;entryDx=0;entryDy=0;" edge="1" parent="1" source="skaD_aCSD-KKtkOVfrvB-4" target="skaD_aCSD-KKtkOVfrvB-15">
          <mxGeometry relative="1" as="geometry" />
        </mxCell>
        <mxCell id="skaD_aCSD-KKtkOVfrvB-4" value="Actor" style="shape=umlActor;verticalLabelPosition=bottom;verticalAlign=top;html=1;outlineConnect=0;" vertex="1" parent="1">
          <mxGeometry x="670" y="210" width="30" height="60" as="geometry" />
        </mxCell>
        <mxCell id="skaD_aCSD-KKtkOVfrvB-24" style="rounded=0;orthogonalLoop=1;jettySize=auto;html=1;" edge="1" parent="1" source="skaD_aCSD-KKtkOVfrvB-5" target="skaD_aCSD-KKtkOVfrvB-16">
          <mxGeometry relative="1" as="geometry" />
        </mxCell>
        <mxCell id="skaD_aCSD-KKtkOVfrvB-25" style="rounded=0;orthogonalLoop=1;jettySize=auto;html=1;entryX=1;entryY=0.5;entryDx=0;entryDy=0;" edge="1" parent="1" source="skaD_aCSD-KKtkOVfrvB-5" target="skaD_aCSD-KKtkOVfrvB-19">
          <mxGeometry relative="1" as="geometry" />
        </mxCell>
        <mxCell id="skaD_aCSD-KKtkOVfrvB-34" style="rounded=0;orthogonalLoop=1;jettySize=auto;html=1;entryX=1;entryY=0.5;entryDx=0;entryDy=0;" edge="1" parent="1" source="skaD_aCSD-KKtkOVfrvB-5" target="skaD_aCSD-KKtkOVfrvB-32">
          <mxGeometry relative="1" as="geometry" />
        </mxCell>
        <mxCell id="skaD_aCSD-KKtkOVfrvB-5" value="Actor" style="shape=umlActor;verticalLabelPosition=bottom;verticalAlign=top;html=1;outlineConnect=0;" vertex="1" parent="1">
          <mxGeometry x="670" y="570" width="30" height="60" as="geometry" />
        </mxCell>
        <mxCell id="skaD_aCSD-KKtkOVfrvB-12" value="" style="ellipse;whiteSpace=wrap;html=1;" vertex="1" parent="1">
          <mxGeometry x="260" y="440" width="120" height="80" as="geometry" />
        </mxCell>
        <mxCell id="skaD_aCSD-KKtkOVfrvB-13" value="Leer noticia" style="text;html=1;align=center;verticalAlign=middle;whiteSpace=wrap;rounded=0;" vertex="1" parent="1">
          <mxGeometry x="290" y="465" width="60" height="30" as="geometry" />
        </mxCell>
        <mxCell id="skaD_aCSD-KKtkOVfrvB-15" value="" style="ellipse;whiteSpace=wrap;html=1;" vertex="1" parent="1">
          <mxGeometry x="460" y="315" width="120" height="80" as="geometry" />
        </mxCell>
        <mxCell id="skaD_aCSD-KKtkOVfrvB-16" value="" style="ellipse;whiteSpace=wrap;html=1;" vertex="1" parent="1">
          <mxGeometry x="470" y="690" width="120" height="80" as="geometry" />
        </mxCell>
        <mxCell id="skaD_aCSD-KKtkOVfrvB-17" value="Administrar accesos" style="text;html=1;align=center;verticalAlign=middle;whiteSpace=wrap;rounded=0;" vertex="1" parent="1">
          <mxGeometry x="490" y="340" width="60" height="30" as="geometry" />
        </mxCell>
        <mxCell id="skaD_aCSD-KKtkOVfrvB-18" value="Crear noticia&lt;div&gt;&lt;br&gt;&lt;/div&gt;" style="text;html=1;align=center;verticalAlign=middle;whiteSpace=wrap;rounded=0;" vertex="1" parent="1">
          <mxGeometry x="500" y="715" width="60" height="30" as="geometry" />
        </mxCell>
        <mxCell id="skaD_aCSD-KKtkOVfrvB-19" value="" style="ellipse;whiteSpace=wrap;html=1;" vertex="1" parent="1">
          <mxGeometry x="384" y="520" width="120" height="80" as="geometry" />
        </mxCell>
        <mxCell id="skaD_aCSD-KKtkOVfrvB-20" value="Crear cuenta" style="text;html=1;align=center;verticalAlign=middle;whiteSpace=wrap;rounded=0;" vertex="1" parent="1">
          <mxGeometry x="414" y="545" width="60" height="30" as="geometry" />
        </mxCell>
        <mxCell id="skaD_aCSD-KKtkOVfrvB-26" value="Administrador" style="text;html=1;align=center;verticalAlign=middle;whiteSpace=wrap;rounded=0;" vertex="1" parent="1">
          <mxGeometry x="655" y="300" width="60" height="30" as="geometry" />
        </mxCell>
        <mxCell id="skaD_aCSD-KKtkOVfrvB-27" value="Usuario Lector" style="text;html=1;align=center;verticalAlign=middle;whiteSpace=wrap;rounded=0;" vertex="1" parent="1">
          <mxGeometry x="110" y="540" width="60" height="30" as="geometry" />
        </mxCell>
        <mxCell id="skaD_aCSD-KKtkOVfrvB-28" value="Usuario periodista" style="text;html=1;align=center;verticalAlign=middle;whiteSpace=wrap;rounded=0;" vertex="1" parent="1">
          <mxGeometry x="655" y="650" width="60" height="30" as="geometry" />
        </mxCell>
        <mxCell id="skaD_aCSD-KKtkOVfrvB-29" value="&lt;h1 style=&quot;margin-top: 0px;&quot;&gt;Caos News&lt;br&gt;&lt;/h1&gt;&lt;p&gt;Pagina web para la divulgación y acceso a noticias de ultima hora, donde los periodistas podrán publicar sus noticias fácilmente.&lt;/p&gt;" style="text;html=1;whiteSpace=wrap;overflow=hidden;rounded=0;" vertex="1" parent="1">
          <mxGeometry x="324" y="120" width="180" height="120" as="geometry" />
        </mxCell>
        <mxCell id="skaD_aCSD-KKtkOVfrvB-32" value="" style="ellipse;whiteSpace=wrap;html=1;" vertex="1" parent="1">
          <mxGeometry x="294" y="600" width="120" height="80" as="geometry" />
        </mxCell>
        <mxCell id="skaD_aCSD-KKtkOVfrvB-33" value="Iniciar sesión" style="text;html=1;align=center;verticalAlign=middle;whiteSpace=wrap;rounded=0;" vertex="1" parent="1">
          <mxGeometry x="324" y="630" width="60" height="30" as="geometry" />
        </mxCell>
      </root>
    </mxGraphModel>
  </diagram>
</mxfile>
